# File produced by Open Asset Import Library (http://www.assimp.sf.net)
# (assimp v3.0.1262)

mtllib Arm_Holder_.stl.obj.mtl

# 72 vertex positions
v  -796.119 1592.04 339.285
v  -756.121 1592.04 339.285
v  -796.119 1624.05 339.285
v  -756.121 1624.05 8.47816e-05
v  -796.119 1592.04 8.47816e-05
v  -796.119 1624.05 8.47816e-05
v  -796.119 1592.04 8.47816e-05
v  -756.121 1624.05 8.47816e-05
v  -756.121 1592.04 8.47816e-05
v  -756.121 1624.05 339.285
v  -796.119 1624.05 339.285
v  -756.121 1592.04 339.285
v  -796.119 1592.04 8.47816e-05
v  -756.121 1592.04 8.47816e-05
v  -756.121 1592.04 339.285
v  -796.119 1592.04 8.47816e-05
v  -796.119 1624.05 339.285
v  -796.119 1624.05 8.47816e-05
v  -756.121 1624.05 339.285
v  -756.121 1592.04 339.285
v  -756.121 1592.04 8.47816e-05
v  -796.119 1624.05 8.47816e-05
v  -796.119 1624.05 339.285
v  -756.121 1624.05 339.285
v  -796.119 1592.04 8.47816e-05
v  -796.119 1592.04 339.285
v  -796.119 1624.05 339.285
v  -756.121 1592.04 8.47816e-05
v  -756.121 1624.05 8.47816e-05
v  -756.121 1624.05 339.285
v  -756.121 1592.04 339.285
v  -796.119 1592.04 339.285
v  -796.119 1592.04 8.47816e-05
v  -756.121 1624.05 339.285
v  -756.121 1624.05 8.47816e-05
v  -796.119 1624.05 8.47816e-05
v  -756.121 1896.17 339.285
v  -796.119 1896.17 339.285
v  -796.119 1864.16 339.285
v  -796.119 1896.17 1.57947e-05
v  -756.121 1864.16 1.19459e-05
v  -796.119 1864.16 2.7389e-05
v  -756.121 1864.16 1.19459e-05
v  -796.119 1896.17 1.57947e-05
v  -756.121 1896.17 3.51671e-07
v  -796.119 1864.16 339.285
v  -756.121 1864.16 339.285
v  -756.121 1896.17 339.285
v  -756.121 1896.17 3.51671e-07
v  -796.119 1896.17 1.57947e-05
v  -756.121 1896.17 339.285
v  -796.119 1864.16 339.285
v  -796.119 1896.17 1.57947e-05
v  -796.119 1864.16 2.7389e-05
v  -756.121 1896.17 339.285
v  -756.121 1864.16 339.285
v  -756.121 1896.17 3.51671e-07
v  -796.119 1864.16 339.285
v  -796.119 1864.16 2.7389e-05
v  -756.121 1864.16 339.285
v  -796.119 1896.17 339.285
v  -796.119 1896.17 1.57947e-05
v  -796.119 1864.16 339.285
v  -756.121 1864.16 1.19459e-05
v  -756.121 1896.17 3.51671e-07
v  -756.121 1864.16 339.285
v  -796.119 1896.17 339.285
v  -756.121 1896.17 339.285
v  -796.119 1896.17 1.57947e-05
v  -756.121 1864.16 1.19459e-05
v  -756.121 1864.16 339.285
v  -796.119 1864.16 2.7389e-05

# 0 UV coordinates

# 72 vertex normals
vn 0 0 1
vn 0 0 1
vn 0 0 1
vn -0 0 -1
vn -0 0 -1
vn -0 0 -1
vn -0 0 -1
vn -0 0 -1
vn 0 0 -1
vn 0 0 1
vn 0 0 1
vn 0 0 1
vn 0 -1 0
vn 0 -1 0
vn 0 -1 0
vn -1 0 0
vn -1 0 0
vn -1 0 0
vn 1 0 0
vn 1 0 0
vn 1 0 0
vn 0 1 0
vn 0 1 0
vn 0 1 0
vn -1 0 0
vn -1 0 0
vn -1 0 0
vn 1 0 0
vn 1 0 0
vn 1 0 0
vn 0 -1 0
vn -0 -1 0
vn 0 -1 0
vn 0 1 0
vn 0 1 0
vn 0 1 0
vn 7.62978e-07 0 1
vn 7.62978e-07 0 1
vn 7.62978e-07 0 1
vn -3.86096e-07 -3.62277e-07 -1
vn -3.86096e-07 -3.62277e-07 -1
vn -3.86096e-07 -3.62277e-07 -1
vn -3.86096e-07 -3.62277e-07 -1
vn -3.86096e-07 -3.62277e-07 -1
vn -3.86096e-07 -3.62278e-07 -1
vn 7.62978e-07 0 1
vn -0 9.53562e-07 1
vn 7.62978e-07 0 1
vn -1.38912e-13 1 -3.59787e-07
vn -1.38912e-13 1 -3.59787e-07
vn -1.38912e-13 1 -3.59787e-07
vn -1 1.90712e-06 5.3968e-07
vn -1 1.90712e-06 5.3968e-07
vn -1 1.90712e-06 5.3968e-07
vn 1 -3.43079e-13 -3.59787e-07
vn 1 -3.43079e-13 -3.59787e-07
vn 1 -3.43079e-13 -3.59787e-07
vn 0 -1 3.59787e-07
vn 0 -1 3.59787e-07
vn 0 -1 3.59787e-07
vn -1 0 3.59787e-07
vn -1 1.90712e-06 5.3968e-07
vn -1 1.90712e-06 5.3968e-07
vn 1 -1.30343e-13 -3.59787e-07
vn 1 -3.43079e-13 -3.59787e-07
vn 1 -3.43079e-13 -3.59787e-07
vn -2.7451e-13 1 -3.59787e-07
vn -1.38912e-13 1 -3.59787e-07
vn -1.38912e-13 1 -3.59787e-07
vn 1.38912e-13 -1 3.59787e-07
vn 0 -1 3.59787e-07
vn 0 -1 3.59787e-07

# Mesh '<STL_BINARY>' with 24 faces
g <STL_BINARY>
usemtl DefaultMaterial
f  1//1 2//2 3//3
f  4//4 5//5 6//6
f  7//7 8//8 9//9
f  10//10 11//11 12//12
f  13//13 14//14 15//15
f  16//16 17//17 18//18
f  19//19 20//20 21//21
f  22//22 23//23 24//24
f  25//25 26//26 27//27
f  28//28 29//29 30//30
f  31//31 32//32 33//33
f  34//34 35//35 36//36
f  37//37 38//38 39//39
f  40//40 41//41 42//42
f  43//43 44//44 45//45
f  46//46 47//47 48//48
f  49//49 50//50 51//51
f  52//52 53//53 54//54
f  55//55 56//56 57//57
f  58//58 59//59 60//60
f  61//61 62//62 63//63
f  64//64 65//65 66//66
f  67//67 68//68 69//69
f  70//70 71//71 72//72

